<svg width="161" height="40" viewBox="0 0 161 40" fill="none" xmlns="http://www.w3.org/2000/svg">
<path d="M0.148 25.916L14.17 7.015H23.026L9.004 25.916H0.148ZM0.148 31V25.916L4.535 24.85H22.698V31H0.148ZM0.886 8.081V1.931H23.026V7.015L18.598 8.081H0.886ZM35.4759 31.451C33.3166 31.451 31.3896 31 29.6949 30.098C28.0276 29.1687 26.7019 27.9113 25.7179 26.326C24.7339 24.7133 24.2419 22.9093 24.2419 20.914C24.2419 18.9187 24.7202 17.142 25.6769 15.584C26.6609 13.9987 28.0002 12.755 29.6949 11.853C31.3896 10.9237 33.3029 10.459 35.4349 10.459C37.5669 10.459 39.4666 10.9237 41.1339 11.853C42.8286 12.755 44.1679 13.9987 45.1519 15.584C46.1359 17.142 46.6279 18.9187 46.6279 20.914C46.6279 22.9093 46.1359 24.7133 45.1519 26.326C44.1952 27.9113 42.8696 29.1687 41.1749 30.098C39.5076 31 37.6079 31.451 35.4759 31.451ZM35.4349 25.096C36.2276 25.096 36.9109 24.932 37.4849 24.604C38.0862 24.2487 38.5509 23.7567 38.8789 23.128C39.2069 22.4993 39.3709 21.775 39.3709 20.955C39.3709 20.135 39.1932 19.4243 38.8379 18.823C38.5099 18.1943 38.0589 17.716 37.4849 17.388C36.9109 17.0327 36.2276 16.855 35.4349 16.855C34.6696 16.855 33.9862 17.0327 33.3849 17.388C32.7836 17.7433 32.3189 18.2353 31.9909 18.864C31.6629 19.4653 31.4989 20.176 31.4989 20.996C31.4989 21.7887 31.6629 22.4993 31.9909 23.128C32.3189 23.7567 32.7836 24.2487 33.3849 24.604C33.9862 24.932 34.6696 25.096 35.4349 25.096ZM59.3392 31.451C57.1799 31.451 55.2529 31 53.5582 30.098C51.8909 29.1687 50.5652 27.9113 49.5812 26.326C48.5972 24.7133 48.1052 22.9093 48.1052 20.914C48.1052 18.9187 48.5835 17.142 49.5402 15.584C50.5242 13.9987 51.8635 12.755 53.5582 11.853C55.2529 10.9237 57.1662 10.459 59.2982 10.459C61.4302 10.459 63.3299 10.9237 64.9972 11.853C66.6919 12.755 68.0312 13.9987 69.0152 15.584C69.9992 17.142 70.4912 18.9187 70.4912 20.914C70.4912 22.9093 69.9992 24.7133 69.0152 26.326C68.0585 27.9113 66.7329 29.1687 65.0382 30.098C63.3709 31 61.4712 31.451 59.3392 31.451ZM59.2982 25.096C60.0909 25.096 60.7742 24.932 61.3482 24.604C61.9495 24.2487 62.4142 23.7567 62.7422 23.128C63.0702 22.4993 63.2342 21.775 63.2342 20.955C63.2342 20.135 63.0565 19.4243 62.7012 18.823C62.3732 18.1943 61.9222 17.716 61.3482 17.388C60.7742 17.0327 60.0909 16.855 59.2982 16.855C58.5329 16.855 57.8495 17.0327 57.2482 17.388C56.6469 17.7433 56.1822 18.2353 55.8542 18.864C55.5262 19.4653 55.3622 20.176 55.3622 20.996C55.3622 21.7887 55.5262 22.4993 55.8542 23.128C56.1822 23.7567 56.6469 24.2487 57.2482 24.604C57.8495 24.932 58.5329 25.096 59.2982 25.096ZM85.2525 31.41C83.9678 31.41 82.7788 31.164 81.6855 30.672C80.5921 30.1527 79.6901 29.4557 78.9795 28.581C78.2688 27.7063 77.8315 26.7497 77.6675 25.711V15.912C77.8315 14.8733 78.2688 13.944 78.9795 13.124C79.7175 12.304 80.6331 11.6753 81.7265 11.238C82.8198 10.7733 83.9951 10.541 85.2525 10.541C87.1931 10.541 88.9015 10.992 90.3775 11.894C91.8535 12.7687 93.0015 13.9987 93.8215 15.584C94.6688 17.1693 95.0925 18.9733 95.0925 20.996C95.0925 22.9913 94.6688 24.7817 93.8215 26.367C93.0015 27.925 91.8535 29.155 90.3775 30.057C88.9015 30.959 87.1931 31.41 85.2525 31.41ZM73.3215 31V1.111H80.4555V15.871L79.2665 20.709L80.2915 25.629V31H73.3215ZM83.9815 25.055C84.7468 25.055 85.4165 24.8773 85.9905 24.522C86.5918 24.1667 87.0565 23.6883 87.3845 23.087C87.7125 22.4583 87.8765 21.7477 87.8765 20.955C87.8765 20.1897 87.7125 19.5063 87.3845 18.905C87.0565 18.2763 86.5918 17.7843 85.9905 17.429C85.3891 17.0737 84.7058 16.896 83.9405 16.896C83.1751 16.896 82.4918 17.0737 81.8905 17.429C81.3165 17.7843 80.8655 18.2627 80.5375 18.864C80.2095 19.4653 80.0455 20.1623 80.0455 20.955C80.0455 21.775 80.2095 22.4993 80.5375 23.128C80.8655 23.7293 81.3301 24.2077 81.9315 24.563C82.5328 24.891 83.2161 25.055 83.9815 25.055ZM103.531 31.041L95.4951 10.951H103.121L108.041 27.474H105.048L110.009 10.951H117.635L109.394 31.041H103.531ZM98.7751 39.487L104.72 26.408L109.394 31.041L105.95 39.487H98.7751Z" fill="#053976"/>
<path d="M121.106 31.451C119.903 31.451 118.919 31.0547 118.154 30.262C117.389 29.4693 117.006 28.4853 117.006 27.31C117.006 26.1347 117.389 25.1507 118.154 24.358C118.919 23.5653 119.903 23.169 121.106 23.169C122.281 23.169 123.252 23.5653 124.017 24.358C124.782 25.1507 125.165 26.1347 125.165 27.31C125.165 28.4853 124.782 29.4693 124.017 30.262C123.252 31.0547 122.281 31.451 121.106 31.451ZM137.3 31.41C135.441 31.41 133.787 30.959 132.339 30.057C130.89 29.155 129.756 27.925 128.936 26.367C128.116 24.7817 127.706 22.9913 127.706 20.996C127.706 18.9733 128.116 17.1693 128.936 15.584C129.756 13.9987 130.89 12.7687 132.339 11.894C133.787 10.992 135.441 10.541 137.3 10.541C138.557 10.541 139.705 10.7733 140.744 11.238C141.782 11.6753 142.63 12.304 143.286 13.124C143.969 13.944 144.379 14.8733 144.516 15.912V25.998C144.379 27.064 143.969 28.007 143.286 28.827C142.63 29.6197 141.782 30.2483 140.744 30.713C139.705 31.1777 138.557 31.41 137.3 31.41ZM138.817 25.055C139.992 25.055 140.935 24.6723 141.646 23.907C142.384 23.1417 142.753 22.1577 142.753 20.955C142.753 20.1623 142.589 19.4653 142.261 18.864C141.933 18.2627 141.468 17.7843 140.867 17.429C140.293 17.0737 139.623 16.896 138.858 16.896C138.092 16.896 137.409 17.0737 136.808 17.429C136.234 17.7843 135.769 18.2763 135.414 18.905C135.086 19.5063 134.922 20.1897 134.922 20.955C134.922 21.7477 135.086 22.4583 135.414 23.087C135.742 23.6883 136.206 24.1667 136.808 24.522C137.409 24.8773 138.079 25.055 138.817 25.055ZM142.466 31V25.629L143.491 20.709L142.466 15.871V10.951H149.477V31H142.466ZM153.599 31V10.951H160.774V31H153.599ZM157.166 8.614C156.1 8.614 155.211 8.25867 154.501 7.548C153.79 6.81 153.435 5.89433 153.435 4.801C153.435 3.735 153.79 2.833 154.501 2.095C155.211 1.357 156.1 0.987998 157.166 0.987998C158.286 0.987998 159.188 1.357 159.872 2.095C160.582 2.833 160.938 3.735 160.938 4.801C160.938 5.89433 160.582 6.81 159.872 7.548C159.188 8.25867 158.286 8.614 157.166 8.614Z" fill="#FAA300"/>
</svg>
